<svg width="1648" height="1353" viewBox="0 0 1648 1353" fill="none" xmlns="http://www.w3.org/2000/svg">
<path d="M241.224 325.174C237.737 343.738 232.156 361.388 196.801 414.862C166.32 460.964 105.987 542.689 72.9708 590.204C39.9542 637.718 34.9591 647.807 32.2336 655.085C29.508 662.362 29.2036 666.522 35.8199 656.092C57.74 621.536 86.5093 571.773 116.648 526.567C144.19 485.256 157.767 451.18 171.003 431.603C183.173 413.601 208.298 375.863 242.211 330.854C259.35 308.109 264.66 298.408 267.418 297.516C276.451 294.598 237.59 348.828 195.418 403.799C170.513 436.261 166.363 452.696 158.97 465.366C156.82 469.052 153.087 472.825 152.018 464.968C148.29 437.584 171.215 383.763 199.176 331.965C209.334 313.148 213.21 310.514 212.39 315.112C205.263 355.057 182.583 377.815 162.433 412.552C121.825 482.56 82.2499 529.958 72.1749 542.923C57.4153 561.917 54.9373 579.727 48.2244 590.816C44.6543 596.713 42.4177 604.062 53.6857 595.065C64.9536 586.068 90.2196 560.734 168.925 500.739C247.631 440.744 379.011 346.855 441.848 306.498C504.686 266.141 495 282.16 418.861 368.322C342.723 454.484 200.425 610.305 129.77 683.451C59.1145 756.597 64.4141 742.348 71.458 726.959C78.5018 711.57 87.1291 695.474 119.04 646.326C150.951 597.179 205.883 515.468 241.183 457.681C276.483 399.895 290.487 368.509 296.905 355.942C303.323 343.375 301.731 350.577 270.609 397.548C239.486 444.52 178.881 531.043 145.352 578.061C111.824 625.078 107.209 629.968 106.762 627.923C104.266 616.505 127.015 591.561 185.307 531.799C229.434 486.559 308.348 416.136 355.971 369.311C421.345 305.031 435.985 278.22 435.023 277.041C432.667 274.151 426.645 289.956 384.341 336.157C342.036 382.357 263.665 464.444 202.75 532.933C141.836 601.422 100.755 653.827 77.7753 683.827C54.7959 713.827 51.1637 719.834 51.5238 721.524C52.5404 726.295 71.4597 704.687 114.472 664.241C145.515 635.049 201.124 594.578 284.498 541.958C367.872 489.338 478.821 427.41 544.978 388.848C611.135 350.286 629.136 336.966 643.554 325.254C657.971 313.541 668.259 303.839 616.447 352.164C564.635 400.488 450.413 507.134 381.055 574.894C311.697 642.654 290.665 668.298 281.155 677.946C271.645 687.594 274.295 680.47 290.528 655.409C306.761 630.349 336.496 587.569 401.627 517.424C466.758 447.279 566.383 351.066 615.812 305.545C665.242 260.024 661.458 268.111 653.569 280.729C645.679 293.347 633.8 310.251 567.391 379.368C500.981 448.485 380.4 569.302 315.332 635.507C250.264 701.712 244.362 709.644 245.031 706.683C245.699 703.722 253.115 689.628 273.506 659.533C293.896 629.439 327.036 583.771 374.593 529.021C422.151 474.27 483.123 411.82 518.732 373.161C554.341 334.502 562.74 321.525 563.511 319.807C564.282 318.089 557.17 328.024 533.193 356.224C509.217 384.424 468.592 430.59 434.578 465.96C400.564 501.331 374.392 524.507 336.058 563.379C297.724 602.251 248.023 656.116 223.366 678.183C198.71 700.251 200.606 688.889 204.876 674.391C209.146 659.892 215.732 642.6 259.941 584.927C304.149 527.254 385.779 429.724 425.372 384.006C464.964 338.288 460.045 347.337 418.817 393.601C377.588 439.865 300.199 523.068 259.916 564.332C219.634 605.596 218.804 602.399 222.047 594.224C225.289 586.05 232.63 572.996 259.789 537.662C286.947 502.329 333.702 445.112 365.582 403.66C414.869 339.574 430.395 310.539 428.789 310.896C424.387 311.876 418.783 324.231 368.33 379.767C317.877 435.304 224.299 536.142 177.756 587.165C131.212 638.188 134.54 636.34 152.706 621.433C170.872 606.526 203.776 578.614 297.42 512.347C391.064 446.079 544.451 342.3 629.142 284.026C713.832 225.752 725.178 216.128 730.304 213.731C735.429 211.334 733.99 216.456 674.657 285.378C615.323 354.299 498.139 486.865 436.561 557.16C374.983 627.454 372.561 631.458 374.87 628.554C384.785 616.081 409.848 589.041 476.61 538.246C523.903 502.264 603.423 452.118 655.663 415.341C707.903 378.564 731.73 358.353 743.323 349.982C752.283 343.512 724.157 383.397 670.89 444.336C646.348 472.412 623.905 492.142 588.171 532.725C552.437 573.308 503.337 633.49 479.444 659.891C455.551 686.292 458.353 677.087 472.243 654.96C486.133 632.833 511.025 598.062 559.102 541.956C607.178 485.849 677.683 409.46 716.388 366.623C755.092 323.787 759.859 316.817 761.066 315.749C762.273 314.681 759.775 319.726 700.688 392.325C641.602 464.924 526.002 604.925 465.807 678.567C405.612 752.21 404.325 755.252 414.33 741.918C424.336 728.583 445.672 698.78 512.001 625.269C578.329 551.759 689.003 435.444 749.725 368.477C810.447 301.511 817.864 287.416 812.794 292.574C807.724 297.731 789.944 322.568 758.317 358.81C726.69 395.052 681.755 441.947 640.221 491.943C598.687 541.938 561.915 593.613 543.73 617.153C525.544 640.692 527.06 634.53 533.136 624.424C539.213 614.319 549.805 600.457 617.783 531.503C685.761 462.548 810.804 338.922 873.781 280.357C936.758 221.793 933.88 232.037 883.709 306.414C833.538 380.79 736.16 518.988 684.71 593.223C633.259 667.459 630.685 673.543 680.991 618.249C731.298 562.955 834.562 446.098 891.429 379.372C957.886 301.393 965.545 283.177 969.513 280.284C972.824 277.869 965.779 310.377 941.675 369.617C926.77 406.249 897.75 452.498 878.801 488.448C859.853 524.398 849.634 547.697 837.143 571.194C824.653 594.691 810.2 617.679 796.321 644.734C767.369 701.167 754.875 738.679 762.041 727.782C772.046 712.57 789.341 674.448 845.805 589.649C902.27 504.851 995.939 373.7 1047.94 298.57C1099.94 223.44 1107.43 208.306 1105.05 213.122C1102.66 217.937 1090.18 243.161 1025.37 341.273C960.56 439.385 843.811 609.621 785.674 691.715C727.537 773.809 731.55 762.603 751.253 719.436C770.955 676.27 806.226 601.484 830.719 541.988C855.213 482.492 867.86 440.552 871.577 420.833C875.294 401.113 869.697 404.886 832.09 445.062C794.483 485.239 725.036 561.705 684.38 609.626C608.196 699.423 602.214 739.132 598.85 741.04C596.834 742.184 598.516 730.624 606.779 704.965C615.042 679.305 630.941 636.557 658.804 585.656C686.667 534.755 726.013 476.995 753.809 438.905C794.775 382.765 817.165 356.876 824.014 344.15C825.539 341.317 824.429 346.635 777.576 404.97C730.723 463.305 638.501 574.697 586.792 638.569C525.387 714.42 514.247 736.875 516.227 745.511C517.501 751.065 537.42 738.825 613.818 686.787C690.216 634.75 827.116 538.128 913.906 469.68C1000.7 401.231 1033.23 363.883 1052.37 341.158C1071.51 318.433 1076.28 311.464 1074.42 315.921C1072.56 320.379 1063.93 336.476 1017.57 408.612C971.206 480.749 887.368 608.437 838.273 689.467C789.179 770.496 777.369 800.997 770.527 819.79C763.686 838.584 762.171 844.746 798.009 798.325C833.848 751.905 907.087 652.715 946.065 599.095C985.042 545.474 987.54 540.43 988.031 541.432C988.522 542.434 986.931 549.636 959.129 609.397C931.326 669.158 877.362 781.259 847.479 845.652C811.769 922.603 808.532 945.34 809.993 954.46C810.338 956.619 816.829 948.292 844.451 891.654C872.073 835.017 922.405 728.922 948.52 678.986C974.636 629.05 975.009 638.487 962.056 699.367C949.103 760.246 922.811 872.282 908.887 935.197C894.962 998.112 894.201 1008.51 894.452 1012.35C894.703 1016.18 895.99 1013.14 913.942 986.179C931.895 959.217 966.473 908.427 996.054 859.6C1025.64 810.773 1049.17 765.448 1060.39 747.26C1071.6 729.071 1069.78 739.393 1053.44 788.017C1037.09 836.64 1006.28 923.253 992.824 963.867C979.371 1004.48 984.214 996.471 999.311 965.561C1014.41 934.652 1039.61 881.085 1055.02 849.485C1070.42 817.885 1075.27 809.875 1076.58 814.55C1077.9 819.224 1075.55 836.826 1065.55 886.025C1055.55 935.223 1037.97 1015.49 1028.57 1061.51C1019.17 1107.54 1018.48 1116.9 1031.56 1090.82C1044.65 1064.73 1071.52 1002.92 1085.85 978.961C1100.18 954.997 1101.16 970.751 1101.13 986.146C1100.99 1056.24 1079.28 1108.84 1078.01 1111.4C1075.9 1115.68 1086.55 1082.15 1092.24 1063.43C1100.14 1037.48 1078.21 1123.49 1075.53 1138.06C1069.91 1168.58 1082.31 1008.82 1072.15 1009.04C1061.99 1009.26 1048.68 1031.29 1047.85 1010.59C1047.03 989.885 1060.9 931.306 1056.16 918.033C1025.82 833.019 981.425 1021.36 975.783 1032.57C973.895 1036.33 969.844 1033.31 968.972 1022.76C968.099 1012.21 969.469 993.491 975.516 961.76C990.066 885.417 1004.54 837.299 1006.26 835.809C1007.49 834.747 1006.24 843.602 998.313 879.186C990.388 914.771 975.007 979.513 966.932 1014.94C958.856 1050.38 958.552 1054.54 960.93 1051.11C970.279 1037.67 982.24 994.362 997.42 911.88C1006.86 860.573 1008.16 788.298 1007.44 754.22C1006.73 720.141 1000.98 725.993 982.584 750.879C964.187 775.765 933.317 819.508 912.457 851.612C891.597 883.715 881.683 902.854 877.219 911.193C872.755 919.531 874.042 916.489 902.4 870.946C930.757 825.404 986.146 737.453 1013.43 694.668C1040.72 651.882 1038.22 656.927 1007.08 703.866C975.946 750.805 916.247 839.486 885.344 879.931C854.441 920.377 854.144 909.9 874.653 862.104C895.162 814.308 936.486 729.51 962.244 668.379C1001.91 574.243 1006.46 532.246 1003.47 529.351C1000.96 526.908 993.306 537.43 969.333 565.583C945.36 593.736 904.507 643.021 875.516 682.466C846.524 721.911 830.632 750.022 818.357 776.75C795.325 826.899 788.039 858.33 788.66 856.887C791.384 850.56 796.325 831.912 814.647 800.557C832.969 769.202 863.839 725.459 897.218 682.249C930.597 639.038 965.548 597.685 990.742 565.408C1015.94 533.13 1030.31 511.181 1036.54 508.675C1042.77 506.169 1040.42 523.77 1013.47 593.684C986.522 663.598 935.048 785.291 906.258 857.225C877.468 929.159 872.922 947.645 896.535 915.157C920.148 882.669 972.058 798.646 1001.11 752.916C1033.69 701.619 1044.37 689.249 1050.91 680.715C1051.98 679.317 1051.02 687.392 1026.93 732.787C1002.84 778.182 956.296 861.553 929.594 912.666C902.893 963.779 897.441 980.108 894.217 986.921C890.993 993.735 890.163 990.537 899.055 948.798C907.947 907.058 926.587 826.873 937.033 759.489C947.48 692.106 949.169 639.954 947.354 613.414C945.54 586.874 940.172 587.527 906.007 631.567C871.842 675.607 809.043 763.015 776.01 810.085C742.978 857.155 741.615 861.237 741.747 859.219C741.878 857.201 743.546 848.959 765.745 807.591C787.944 766.223 830.624 691.98 864.528 636.309C898.432 580.638 922.266 545.79 897.395 577.394C872.525 608.998 798.228 708.111 760.106 757.089C721.984 806.067 722.288 801.907 727.52 781.317C732.752 760.726 742.901 723.831 768.906 660.865C794.912 597.9 836.464 509.982 845.988 488.914C855.511 467.845 831.746 516.29 796.122 577.173C760.499 638.057 713.737 709.91 692.484 744.52C671.231 779.129 676.904 774.317 682.929 765.792C688.955 757.267 695.161 745.175 723.894 702.654C752.627 660.133 803.699 587.549 832.468 545.633C861.237 503.716 866.156 494.667 833.925 536.076C801.694 577.486 732.164 669.629 695.702 718.618C659.24 767.606 657.953 770.649 660.77 768.289C663.587 765.929 670.547 758.074 733.337 672.107C796.127 586.14 914.536 422.298 979.281 330.327C1044.03 238.357 1051.52 223.223 1035.1 245.307C1018.68 267.392 978.127 327.154 950.423 371.033C906.977 439.846 891.049 479.286 881.904 501.792C865.684 541.711 852.418 551.513 849.938 556.099C839.675 575.079 870.539 448.89 862.073 421.816C851.074 386.645 769.221 558.983 756.542 581.753C743.863 604.523 788.203 536.674 813.204 494.038C857.822 417.946 848.059 390.787 845.713 379.004C844.78 374.321 840.793 373.306 783.497 399.416C726.201 425.526 614.802 479.057 530.488 525.573C446.174 572.088 392.322 609.967 355.084 642.899C317.846 675.832 298.855 702.671 347.626 650.733C396.396 598.796 513.504 467.27 574.701 402.191C635.897 337.113 637.634 342.467 602.728 419.973C567.823 497.479 496.223 646.973 458.619 726.546C421.014 806.12 419.575 811.242 442.893 783.231C466.21 755.22 514.328 693.92 544.602 652.811C587.884 594.039 599.804 565.877 604.12 558.24C607.187 552.815 584.453 616.997 545.586 700.612C528.47 737.433 519.884 764.281 533.731 762.57C594.233 755.093 635.016 685.741 656.109 661.464C673.937 640.946 681.355 626.719 683.152 624.189C685.873 620.36 677.974 644.277 655.951 682.569C614.318 754.959 579.338 801.867 579.126 804.545C578.052 818.107 610.215 744.375 642.894 694.428C648.244 686.251 630.276 754.461 615.783 810.602C588.243 917.285 733.903 730.903 738.342 729.073C748.06 725.068 711.624 788.993 680.421 840.156C652.487 885.958 715.042 739.217 717.104 703.995C717.831 691.58 712.276 690.224 706.277 691.337C643.546 702.979 587.213 782.389 585.868 786.013C583.859 791.424 610.075 731.755 644.457 658.314C665.095 614.23 667.098 586.675 666.058 571.803C665.723 567.008 659.871 569.101 618.886 597.498C577.901 625.895 500.45 680.865 461.308 706.102C422.167 731.339 423.682 725.177 426.431 716.919C432.62 698.327 454.877 664.223 483.971 626.243C495.029 611.808 499.899 608.21 476.061 636.721C452.223 665.233 399.872 726.222 375.891 753.155C351.911 780.088 357.889 771.116 391.53 734.229C425.171 697.343 486.295 632.813 520.205 595.566C554.115 558.319 558.958 550.309 562.625 544.701C568.353 535.941 526.728 571.648 447.201 639.124C389.185 688.347 357.398 706.449 352.53 706.647C350.862 706.715 355.605 700.108 386.483 671.446C417.362 642.785 475.456 590.58 475.731 590.79C476.006 591 416.701 645.208 384.978 674.615C353.254 704.023 350.909 706.988 350.42 705.954C349.932 704.92 351.371 699.798 402.08 639.654C452.79 579.511 552.726 464.502 603.942 408.894C655.159 353.287 654.626 360.566 651.701 371.441C644.839 396.959 612.972 448.096 573.286 505.894C558.821 526.96 555.164 530.769 554.848 527.15C553.533 512.068 583.154 467.774 635.247 399.97C663.082 363.74 700.346 328.936 717.338 314.433C734.329 299.931 731.604 308.096 722.219 319.559C712.834 331.022 696.874 345.536 686.42 354.418C675.967 363.3 671.505 366.11 663.469 371.922" stroke="url(#paint0_linear_1205_73)" stroke-width="60" stroke-linecap="round"/>
<path d="M699.557 230.67C748.472 210.609 801.328 202.004 854.081 205.513C1004.09 214.738 1134.51 325.477 1168.31 471.856C1179.91 521.562 1180.39 573.219 1169.7 623.131C1159.01 673.042 1137.43 719.974 1106.48 760.569L1122.23 774.044L1164.25 771.544L1403.25 984.714C1426.36 1005.22 1428.48 1040.86 1407.97 1063.97C1387.46 1087.07 1351.82 1089.19 1328.71 1068.68L1089.21 856.074L1086.71 814.055L1071.46 800.017C1034.83 835.554 990.783 862.554 942.491 879.084C894.199 895.613 842.849 901.264 792.118 895.632C642.764 879.43 517.343 763.056 490.399 615.202C480.66 563.238 482.938 509.733 497.058 458.785C511.179 407.836 536.767 360.792 571.865 321.254C606.963 281.716 650.642 250.731 699.557 230.67ZM816.636 311.827C684.194 319.706 583.644 432.976 591.523 565.417C599.402 697.858 712.672 798.408 845.113 790.529C977.555 782.651 1078.11 669.38 1070.23 536.939C1062.35 404.498 949.077 303.948 816.636 311.827Z" fill="#191818"/>
<path d="M699.557 230.67C748.472 210.609 801.328 202.004 854.081 205.513C1004.09 214.738 1134.51 325.477 1168.31 471.856C1179.91 521.562 1180.39 573.219 1169.7 623.131C1159.01 673.042 1137.43 719.974 1106.48 760.569L1122.23 774.044L1164.25 771.544L1403.25 984.714C1426.36 1005.22 1428.48 1040.86 1407.97 1063.97C1387.46 1087.07 1351.82 1089.19 1328.71 1068.68L1089.21 856.074L1086.71 814.055L1071.46 800.017C1034.83 835.554 990.783 862.554 942.491 879.084C894.199 895.613 842.849 901.264 792.118 895.632C642.764 879.43 517.343 763.056 490.399 615.202C480.66 563.238 482.938 509.733 497.058 458.785C511.179 407.836 536.767 360.792 571.865 321.254C606.963 281.716 650.642 250.731 699.557 230.67ZM816.636 311.827C684.194 319.706 583.644 432.976 591.523 565.417C599.402 697.858 712.672 798.408 845.113 790.529C977.555 782.651 1078.11 669.38 1070.23 536.939C1062.35 404.498 949.077 303.948 816.636 311.827Z" stroke="black"/>
<defs>
<linearGradient id="paint0_linear_1205_73" x1="1158.61" y1="485.154" x2="61.8687" y2="431.529" gradientUnits="userSpaceOnUse">
<stop offset="0.163462" stop-color="#10A295"/>
<stop offset="1" stop-color="#FFED24"/>
</linearGradient>
</defs>
</svg>
